<svg width="40" height="40" viewBox="0 0 40 40" fill="none" xmlns="http://www.w3.org/2000/svg">
<rect x="5" y="5" width="30" height="30" rx="15" fill="url(#paint0_linear_0_121)"/>
<path fill-rule="evenodd" clip-rule="evenodd" d="M22.3547 12.3209C22.5923 11.9817 23.0599 11.8992 23.3992 12.1368C23.7384 12.3743 23.8209 12.8419 23.5833 13.1812L22.3678 14.9171C23.1573 15.1693 23.6952 15.4414 23.6952 15.4414C23.6952 15.4414 22.3805 17.7029 20.1506 17.7029C17.9206 17.7029 16.3361 15.5951 16.3361 15.5951C16.3361 15.5951 16.8979 15.2365 17.7308 14.929L16.4073 13.3518C16.1411 13.0345 16.1825 12.5615 16.4998 12.2953C16.817 12.029 17.29 12.0704 17.5563 12.3877L19.2491 14.4052C19.2828 14.4453 19.3115 14.4878 19.3353 14.5321C19.5344 14.5089 19.7374 14.4959 19.9423 14.4959C20.2296 14.4959 20.5167 14.5179 20.7968 14.5552C20.8109 14.529 20.8266 14.5033 20.8441 14.4783L22.3547 12.3209ZM16.7956 17.8099C16.2005 17.3849 15.3001 16.2757 15.3001 16.2757C15.3001 16.2757 13 18.0983 13 21.9631C13 25.8278 16.9764 28.1538 16.9764 28.1538C16.9764 28.1538 18.8763 26.2352 19.3427 23.803C19.8091 21.3708 18.6528 18.6701 18.6528 18.6701C18.6528 18.6701 17.3907 18.2349 16.7956 17.8099ZM23.2044 17.8099C23.7995 17.3849 24.6999 16.2757 24.6999 16.2757C24.6999 16.2757 27 18.0983 27 21.9631C27 25.8278 23.0236 28.1538 23.0236 28.1538C23.0236 28.1538 21.1237 26.2352 20.6573 23.803C20.1909 21.3708 21.3472 18.6701 21.3472 18.6701C21.3472 18.6701 22.6093 18.2349 23.2044 17.8099Z" fill="white"/>
<defs>
<linearGradient id="paint0_linear_0_121" x1="5" y1="5" x2="5" y2="35" gradientUnits="userSpaceOnUse">
<stop stop-color="#92BC2C"/>
<stop offset="1" stop-color="#AFC836"/>
</linearGradient>
</defs>
</svg>
