<svg width="40" height="40" viewBox="0 0 40 40" fill="none" xmlns="http://www.w3.org/2000/svg">
<rect x="5" y="5" width="30" height="30" rx="15" fill="url(#paint0_linear_0_110)"/>
<path fill-rule="evenodd" clip-rule="evenodd" d="M20.7804 19.965C20.8888 19.8989 20.9808 19.7603 21.0551 19.6063C22.0315 20.0054 22.7176 20.9484 22.7176 22.0481C22.7176 23.5091 21.5067 24.6934 20.0129 24.6934C19.3998 24.6934 18.8342 24.4938 18.3806 24.1575C18.2317 24.087 18.1093 24.0193 18.0091 23.9639C17.8537 23.878 17.7518 23.8217 17.688 23.8305C17.5014 23.8562 17.5556 24.0278 17.6048 24.1837C17.6383 24.2896 17.6694 24.3883 17.6212 24.429C17.5707 24.4716 17.4074 24.3158 17.2165 24.1338C16.9566 23.886 16.6457 23.5896 16.4991 23.6787C16.3832 23.7491 16.4957 23.94 16.6335 24.1738L16.6437 24.1911C16.7019 24.29 16.7693 24.3905 16.8309 24.4824C16.956 24.669 17.0567 24.8193 17.0063 24.8448C16.9454 24.8755 16.5208 24.589 16.163 24.1911C16.0249 24.0376 15.8911 23.8711 15.7669 23.7165C15.4948 23.3779 15.2681 23.0959 15.1408 23.1293C14.9878 23.1695 15.1036 23.4852 15.2737 23.7891C15.3533 23.9312 15.4469 24.0759 15.5279 24.2011C15.6539 24.396 15.7496 24.5438 15.7149 24.562C15.6681 24.5865 15.2562 24.1848 14.9764 23.6787C14.8102 23.378 14.6707 23.0458 14.5577 22.7768C14.4352 22.4851 14.344 22.2678 14.2839 22.2459C14.0751 22.1699 14.0751 22.5956 14.1589 23.21C14.1698 23.2901 14.186 23.3741 14.2061 23.4597C15.0181 26.087 17.5125 28 20.4637 28C24.0736 28 27 25.1379 27 21.6072C27 18.2469 24.3491 15.4921 20.981 15.2342C20.9852 15.0759 21.0678 14.762 21.0678 14.762C21.0678 14.762 21.6625 13.3233 21.6939 13.0159C21.696 12.9955 21.6984 12.9734 21.7011 12.9497C21.7381 12.6176 21.807 12 21.2757 12C20.992 12 20.86 12.2111 20.7091 12.4525C20.6512 12.5452 20.5904 12.6423 20.5172 12.7337C19.9901 13.392 19.1037 14.214 18.6011 14.652C17.5388 15.5776 16.4966 16.3384 15.8887 16.7821L15.8887 16.7821L15.8887 16.7821C15.6122 16.9839 15.4256 17.1201 15.3679 17.1764C14.9327 17.6006 13.3723 20.4152 13.3723 20.4152C13.3723 20.4152 12.8677 21.3182 13.047 21.5013C13.2264 21.6845 13.6589 21.6425 13.6589 21.6425C13.6589 21.6425 19.4696 20.3095 19.9898 20.2043C20.1299 20.176 20.2287 20.1597 20.3046 20.1472C20.5107 20.1131 20.5477 20.107 20.7804 19.965ZM16.6721 18.252C16.3602 18.5485 15.8429 19.2561 15.8429 19.2561C15.8429 19.2561 16.8043 19.3154 17.3338 18.8121C17.8632 18.3088 17.7419 17.451 17.7419 17.451C17.7419 17.451 16.984 17.9555 16.6721 18.252Z" fill="white"/>
<defs>
<linearGradient id="paint0_linear_0_110" x1="5.19339" y1="5" x2="5.19339" y2="34.6132" gradientUnits="userSpaceOnUse">
<stop stop-color="#0C69C8"/>
<stop offset="1" stop-color="#0180C7"/>
</linearGradient>
</defs>
</svg>
