<svg width="40" height="40" viewBox="0 0 40 40" fill="none" xmlns="http://www.w3.org/2000/svg">
<rect x="5" y="5" width="30" height="30" rx="15" fill="url(#paint0_linear_0_102)"/>
<path fill-rule="evenodd" clip-rule="evenodd" d="M15.7701 24.4502L17.8448 23.8486L19.7872 27.4001C19.8792 27.5683 20.1208 27.5683 20.2128 27.4001L22.1552 23.8486L24.2299 24.4502C24.4141 24.5036 24.5845 24.3323 24.5301 24.1484L23.9306 22.1223L27.3738 20.2391C27.542 20.1471 27.542 19.9055 27.3738 19.8135L23.8991 17.9131L24.5301 15.7806C24.5845 15.5967 24.4141 15.4254 24.2299 15.4788L22.0968 16.0973L20.2128 12.6525C20.1208 12.4843 19.8792 12.4843 19.7872 12.6525L17.9032 16.0973L15.7701 15.4788C15.5859 15.4254 15.4155 15.5967 15.4699 15.7806L16.1009 17.9131L12.6262 19.8135C12.458 19.9055 12.458 20.1471 12.6262 20.2391L16.0694 22.1223L15.4699 24.1484C15.4155 24.3323 15.5859 24.5036 15.7701 24.4502ZM17.6649 20.2595L19.05 21.017L19.8075 22.4021C19.8995 22.5703 20.1412 22.5703 20.2332 22.4021L20.9907 21.017L22.3758 20.2595C22.544 20.1675 22.544 19.9258 22.3758 19.8338L20.9907 19.0763L20.2332 17.6912C20.1412 17.5229 19.8995 17.5229 19.8075 17.6912L19.05 19.0763L17.6649 19.8338C17.4966 19.9258 17.4966 20.1675 17.6649 20.2595Z" fill="white"/>
<defs>
<linearGradient id="paint0_linear_0_102" x1="5.24622" y1="5" x2="5.24622" y2="34.5076" gradientUnits="userSpaceOnUse">
<stop stop-color="#EC8CE5"/>
<stop offset="1" stop-color="#F3A7E7"/>
</linearGradient>
</defs>
</svg>
