<svg width="40" height="40" viewBox="0 0 40 40" fill="none" xmlns="http://www.w3.org/2000/svg">
<rect x="5" y="5" width="30" height="30" rx="15" fill="url(#paint0_linear_0_73)"/>
<path fill-rule="evenodd" clip-rule="evenodd" d="M15.0869 14.247C15.2685 13.5303 15.9178 13 16.6909 13C17.2733 13 17.7854 13.3009 18.0802 13.7557C18.1257 13.7519 18.1717 13.75 18.2182 13.75C18.3255 13.75 18.4304 13.7602 18.5321 13.7797C18.8342 13.4539 19.266 13.25 19.7455 13.25C20.4267 13.25 21.0118 13.6618 21.2655 14.25L21.2727 14.25C21.3904 14.25 21.5052 14.2623 21.6159 14.2856C21.8808 14.1054 22.2008 14 22.5455 14C23.2607 14 23.8699 14.4538 24.1009 15.0892C24.2263 15.1322 24.3448 15.1898 24.4545 15.2601C24.7117 15.0955 25.0174 15 25.3455 15C26.2592 15 27 15.7408 27 16.6545V21.625V21.7056C27 21.736 26.9992 21.7663 26.9975 21.7964C26.8978 25.238 23.8031 28 20 28C16.134 28 13 25.1458 13 21.625C13 19.9255 13.7302 18.3813 14.9205 17.2385C14.9175 18.8954 14.9455 20.6082 15.0745 20.5788C15.42 20.5001 15.1501 15.3683 15.0869 14.247Z" fill="white"/>
<defs>
<linearGradient id="paint0_linear_0_73" x1="5.19339" y1="5" x2="5.19339" y2="34.6132" gradientUnits="userSpaceOnUse">
<stop stop-color="#CE4265"/>
<stop offset="1" stop-color="#E74347"/>
</linearGradient>
</defs>
</svg>
