<svg width="40" height="40" viewBox="0 0 40 40" fill="none" xmlns="http://www.w3.org/2000/svg">
<rect x="5" y="5" width="30" height="30" rx="15" fill="url(#paint0_linear_0_35)"/>
<path fill-rule="evenodd" clip-rule="evenodd" d="M22.4855 24.44C22.6685 23.7708 22.3133 22.3949 22.3133 22.3949C22.3133 22.3949 22.0556 23.5157 21.6529 23.93C21.3095 24.2834 20.8886 24.5285 20.2851 24.5929C20.7785 24.3532 21.1179 23.8534 21.1179 23.2757C21.1179 22.4649 20.4492 21.8075 19.6243 21.8075C18.7994 21.8075 18.1307 22.4649 18.1307 23.2757C18.1307 23.4972 18.1806 23.7072 18.2699 23.8955C17.754 23.4845 17.6728 22.8255 17.6728 22.8255C17.6728 22.8255 17.0967 25.2174 18.6842 26.3426C20.2716 27.4678 23.3813 26.5006 23.3813 26.5006C23.3813 26.5006 18.9311 29.6319 15.6335 26.2239C12.7929 23.2882 14.8921 19.4232 14.8921 19.4232C14.8921 19.4232 14.8014 19.7818 14.8014 20.198C14.8014 20.6142 15.0271 20.9309 15.0271 20.9309C15.0271 20.9309 15.7002 19.512 16.2241 18.935C16.7199 18.3889 17.3414 17.946 17.8782 17.5635C18.2914 17.269 18.6545 17.0102 18.8713 16.7678C20.0656 15.4324 19.3333 13 19.3333 13C19.3333 13 20.6796 14.1868 21.0554 15.7197C21.1987 16.3039 21.1065 16.9687 21.0241 17.5632C20.8903 18.5283 20.7822 19.3081 21.7487 19.2575C23.3106 19.1758 21.9534 16.7678 21.9534 16.7678C21.9534 16.7678 25.4963 18.6299 25.2316 21.8867C24.9669 25.1435 21.359 25.8839 21.359 25.8839C21.359 25.8839 22.3025 25.1093 22.4855 24.44Z" fill="white"/>
<defs>
<linearGradient id="paint0_linear_0_35" x1="5" y1="5" x2="5" y2="35" gradientUnits="userSpaceOnUse">
<stop stop-color="#FF6F00"/>
<stop offset="1" stop-color="#FBAE46"/>
</linearGradient>
</defs>
</svg>
