<svg width="40" height="40" viewBox="0 0 40 40" fill="none" xmlns="http://www.w3.org/2000/svg">
<rect x="5" y="5" width="30" height="30" rx="15" fill="url(#paint0_linear_0_93)"/>
<path fill-rule="evenodd" clip-rule="evenodd" d="M20 27C23.866 27 27 23.866 27 20C27 16.134 23.866 13 20 13C16.134 13 13 16.134 13 20C13 23.866 16.134 27 20 27ZM17.9219 20.0721C18.5259 20.0721 19.0156 19.5924 19.0156 19.0006H18.3394C17.8188 19.0006 17.3945 18.588 17.3757 18.072C17.0484 18.2572 16.8281 18.6037 16.8281 19.0006C16.8281 19.5924 17.3178 20.0721 17.9219 20.0721ZM20.7656 19.0006C20.7656 19.5924 21.2553 20.0721 21.8594 20.0721C22.4634 20.0721 22.9531 19.5924 22.9531 19.0006C22.9531 18.6037 22.7329 18.2572 22.4056 18.072C22.3868 18.588 21.9625 19.0006 21.4419 19.0006H20.7656Z" fill="white"/>
<defs>
<linearGradient id="paint0_linear_0_93" x1="5.19339" y1="5" x2="5.19339" y2="34.6132" gradientUnits="userSpaceOnUse">
<stop stop-color="#516AAC"/>
<stop offset="1" stop-color="#7773D4"/>
</linearGradient>
</defs>
</svg>
