<svg width="40" height="40" viewBox="0 0 40 40" fill="none" xmlns="http://www.w3.org/2000/svg">
<rect x="5" y="5" width="30" height="30" rx="15" fill="url(#paint0_linear_0_63)"/>
<path fill-rule="evenodd" clip-rule="evenodd" d="M20 27C23.866 27 27 23.866 27 20C27 16.134 23.866 13 20 13C16.134 13 13 16.134 13 20C13 23.866 16.134 27 20 27ZM20 24C22.2091 24 24 22.2091 24 20C24 17.7909 22.2091 16 20 16C17.7909 16 16 17.7909 16 20C16 22.2091 17.7909 24 20 24Z" fill="white"/>
<defs>
<linearGradient id="paint0_linear_0_63" x1="5.19339" y1="5" x2="5.19339" y2="34.6132" gradientUnits="userSpaceOnUse">
<stop stop-color="#9298A4"/>
<stop offset="1" stop-color="#A3A49E"/>
</linearGradient>
</defs>
</svg>
