<svg width="40" height="40" viewBox="0 0 40 40" fill="none" xmlns="http://www.w3.org/2000/svg">
<rect x="5" y="5" width="30" height="30" rx="15" fill="url(#paint0_linear_0_41)"/>
<path fill-rule="evenodd" clip-rule="evenodd" d="M17.1447 28C17.853 28 18.4742 27.4995 18.8224 26.7477C19.1706 27.4995 19.7917 28 20.5 28C21.1456 28 21.7189 27.5841 22.0789 26.9411C22.439 27.5841 23.0123 28 23.6579 28C24.7479 28 25.6316 26.8145 25.6316 25.3521C25.6316 25.064 25.5973 24.7866 25.5338 24.5268C27.0485 23.3156 28 21.5657 28 19.6196C28 15.9637 24.6421 13 20.5 13C16.3579 13 13 15.9637 13 19.6196C13 21.4955 13.884 23.189 15.3044 24.3936C15.2183 24.6908 15.1711 25.0141 15.1711 25.3521C15.1711 26.8145 16.0547 28 17.1447 28ZM20.4013 23.1117C22.8539 23.1117 24.8421 21.607 24.8421 19.7509C24.8421 17.8948 22.8539 16.3902 20.4013 16.3902C17.9487 16.3902 15.9605 17.8948 15.9605 19.7509C15.9605 21.607 17.9487 23.1117 20.4013 23.1117Z" fill="white"/>
<defs>
<linearGradient id="paint0_linear_0_41" x1="5" y1="5" x2="5" y2="35" gradientUnits="userSpaceOnUse">
<stop stop-color="#A864C7"/>
<stop offset="1" stop-color="#C261D4"/>
</linearGradient>
</defs>
</svg>
