<svg width="40" height="40" viewBox="0 0 40 40" fill="none" xmlns="http://www.w3.org/2000/svg">
<rect x="5" y="5" width="30" height="30" rx="15" fill="url(#paint0_linear_0_21)"/>
<path fill-rule="evenodd" clip-rule="evenodd" d="M25.4745 24.6261C25.4745 24.6261 23.7092 26.042 20.1963 25.456C17.5311 25.0115 16.1096 22.0736 16.1096 20.4944C16.1096 16.7502 18.8808 15.8981 20.7543 15.8981C22.6278 15.8981 23.85 17.7247 23.85 19.1389C23.85 20.5531 22.8497 21.7901 21.2931 21.7901C19.7366 21.7901 19.2755 20.6973 19.2755 19.6926C19.2755 18.6879 20.0884 18.334 20.8297 18.334C21.571 18.334 21.8249 18.9669 21.8249 19.5108C21.8249 20.0548 21.4028 20.2496 21.0508 20.2496C20.6988 20.2496 20.6639 20.072 20.5292 19.8854C20.3945 19.6987 20.7011 18.9923 20.1963 18.9923C19.6915 18.9923 19.5974 19.8044 19.5974 19.8044C19.5974 19.8044 19.7815 21.3721 21.2931 21.3451C22.8048 21.318 23.522 20.1493 23.3136 18.9923C23.1052 17.8352 21.9822 16.6057 20.0115 16.8541C18.0407 17.1026 17.236 19.0939 17.5907 21.2219C17.9454 23.3499 20.4947 24.5829 22.4992 24.1393C24.5036 23.6957 26.5 22.2445 26.5 18.5653C26.5 14.8861 23.3136 12.6746 19.514 13.0391C15.7145 13.4036 13.3559 16.7254 13.5068 20.7166C13.6578 24.7078 17.445 26.8816 20.6475 26.9936C23.85 27.1057 25.8132 25.2518 25.8132 25.2518C25.8132 25.2518 26.2547 24.8581 26.0816 24.5506C25.9085 24.2432 25.4745 24.6261 25.4745 24.6261Z" fill="white"/>
<defs>
<linearGradient id="paint0_linear_0_21" x1="5" y1="5" x2="5" y2="35" gradientUnits="userSpaceOnUse">
<stop stop-color="#F66F71"/>
<stop offset="1" stop-color="#FE9F92"/>
</linearGradient>
</defs>
</svg>
