<svg width="40" height="40" viewBox="0 0 40 40" fill="none" xmlns="http://www.w3.org/2000/svg">
<rect x="5" y="5" width="30" height="30" rx="15" fill="url(#paint0_linear_0_14)"/>
<path fill-rule="evenodd" clip-rule="evenodd" d="M23.8536 20.2658C23.8242 20.2258 23.8124 20.1757 23.8208 20.1268L24.674 15.1518C24.689 15.0641 24.7661 15 24.8551 15C24.9348 15 25.0062 15.0517 25.0302 15.1276L26.9618 21.2435C26.9848 21.3162 26.9601 21.3956 26.9 21.4425L25.661 22.4099C25.5799 22.4732 25.4624 22.457 25.4014 22.374L23.8536 20.2658ZM13 23.5214C13 23.6004 13.0508 23.6704 13.1259 23.695L15.9716 24.6254C16.0258 24.6432 16.0852 24.6345 16.1322 24.6021L22.818 19.9864C22.8596 19.9577 22.8874 19.913 22.8949 19.863L23.5847 15.2347C23.6011 15.1243 23.5156 15.0251 23.404 15.0251H17.6513C17.5969 15.0251 17.5454 15.0493 17.5107 15.0912L13.042 20.4819C13.0149 20.5147 13 20.5559 13 20.5985V23.5214ZM17.3271 24.907L20.5755 25.9712C20.6309 25.9893 20.6915 25.9799 20.7389 25.946L24.4951 23.2516C24.5753 23.1941 24.5953 23.0833 24.5402 23.0013L23.2482 21.0787C23.1916 20.9945 23.0772 20.9725 22.9935 21.0298L17.3271 24.907Z" fill="white"/>
<defs>
<linearGradient id="paint0_linear_0_14" x1="5" y1="5" x2="5" y2="35" gradientUnits="userSpaceOnUse">
<stop stop-color="#C5B489"/>
<stop offset="1" stop-color="#D7CD90"/>
</linearGradient>
</defs>
</svg>
